<svg width="58" height="58" viewBox="0 0 58 58" fill="none" xmlns="http://www.w3.org/2000/svg">
<g filter="url(#filter0_d)">
<rect x="15" y="15" width="28" height="28" rx="10" fill="white"/>
<path d="M22.3478 23.2857V21H23.913V23.2857H26.2609V24.8095H23.913V27.0952H22.3478V24.8095H20V23.2857H22.3478ZM24.6957 27.8571V25.5714H27.0435V23.2857H32.5217L33.9539 24.8095H36.4348C37.2957 24.8095 38 25.4952 38 26.3333V35.4762C38 36.3143 37.2957 37 36.4348 37H23.913C23.0522 37 22.3478 36.3143 22.3478 35.4762V27.8571H24.6957ZM30.1739 34.7143C32.3339 34.7143 34.087 33.0076 34.087 30.9048C34.087 28.8019 32.3339 27.0952 30.1739 27.0952C28.0139 27.0952 26.2609 28.8019 26.2609 30.9048C26.2609 33.0076 28.0139 34.7143 30.1739 34.7143ZM27.6696 30.9048C27.6696 32.2533 28.7887 33.3429 30.1739 33.3429C31.5591 33.3429 32.6783 32.2533 32.6783 30.9048C32.6783 29.5562 31.5591 28.4667 30.1739 28.4667C28.7887 28.4667 27.6696 29.5562 27.6696 30.9048Z" fill="black"/>
</g>
<defs>
<filter id="filter0_d" x="0" y="0" width="58" height="58" filterUnits="userSpaceOnUse" color-interpolation-filters="sRGB">
<feFlood flood-opacity="0" result="BackgroundImageFix"/>
<feColorMatrix in="SourceAlpha" type="matrix" values="0 0 0 0 0 0 0 0 0 0 0 0 0 0 0 0 0 0 127 0" result="hardAlpha"/>
<feOffset/>
<feGaussianBlur stdDeviation="7.5"/>
<feColorMatrix type="matrix" values="0 0 0 0 0 0 0 0 0 0 0 0 0 0 0 0 0 0 0.15 0"/>
<feBlend mode="normal" in2="BackgroundImageFix" result="effect1_dropShadow"/>
<feBlend mode="normal" in="SourceGraphic" in2="effect1_dropShadow" result="shape"/>
</filter>
</defs>
</svg>
