<svg width="178" height="86" viewBox="0 0 178 86" fill="none" xmlns="http://www.w3.org/2000/svg">
<g filter="url(#filter0_d)">
<path d="M45.3926 47.8438L48.498 51.0664C49.2012 51.8086 49.6699 52.2676 49.9043 52.4434C50.1582 52.5996 50.4512 52.6777 50.7832 52.6777C51.0566 52.6777 51.5059 52.5508 52.1309 52.2969L52.7461 53L44.1914 60.793L43.5469 60.0898C43.9375 59.4453 44.1328 58.9668 44.1328 58.6543C44.1328 58.3027 43.5859 57.4727 42.4922 56.1641L39.0352 51.9453C36.1445 53.1172 32.6289 53.7031 28.4883 53.7031C21.6719 53.7031 16.2227 51.8184 12.1406 48.0488C9.95312 46.0371 8.29297 43.625 7.16016 40.8125C6.16406 38.332 5.66602 35.7246 5.66602 32.9902C5.66602 28.9863 6.70117 25.334 8.77148 22.0332C12.7949 15.5488 19.4258 12.3066 28.6641 12.3066C35.5977 12.3066 41.0957 14.1914 45.1582 17.9609C47.3457 19.9727 49.0059 22.375 50.1387 25.168C51.1348 27.6484 51.6328 30.2559 51.6328 32.9902C51.6328 38.8691 49.5527 43.8203 45.3926 47.8438ZM39.6211 42.0137C41.6914 39.4355 42.7266 36.418 42.7266 32.9609C42.7266 28.6445 41.2227 25.1484 38.2148 22.4727C35.6953 20.207 32.5117 19.0742 28.6641 19.0742C24.7969 19.0742 21.6035 20.207 19.084 22.4727C16.0762 25.168 14.5723 28.6738 14.5723 32.9902C14.5723 37.3262 16.0762 40.832 19.084 43.5078C21.623 45.7734 24.8262 46.9062 28.6934 46.9062C30.5293 46.9062 32.3262 46.5938 34.084 45.9688C33.8691 45.6953 33.6836 45.4609 33.5273 45.2656C31.457 42.6094 29.0156 40.9492 26.2031 40.2852V39.4648C27.6094 38.3711 29.2109 37.8242 31.0078 37.8242C32.2969 37.8242 33.5762 38.1367 34.8457 38.7617C36.1348 39.3867 37.7266 40.4707 39.6211 42.0137Z" fill="#E69900"/>
</g>
<g filter="url(#filter1_d)">
<path d="M65.5254 24.2012L65.9355 24.084L66.2285 23.791H66.2871L66.5508 23.9082H66.6094C67.0781 23.9082 67.4883 23.8203 67.8398 23.6445C68.2109 23.4492 68.5137 23.3125 68.748 23.2344C69.002 23.1562 69.1582 23.0977 69.2168 23.0586C69.2754 23.0195 69.3242 23 69.3633 23L69.832 23.0586C69.9883 23.0586 70.1934 22.7852 70.4473 22.2383C70.7207 21.6719 71.0234 21.2617 71.3555 21.0078C71.6875 20.7539 72.0195 20.2754 72.3516 19.5723C72.4297 19.4746 72.5176 19.3281 72.6152 19.1328C72.7129 18.918 72.791 18.8105 72.8496 18.8105C73.1426 18.8105 73.377 18.625 73.5527 18.2539C74.1387 17.5703 74.6172 17.2285 74.9883 17.2285C75.4766 17.2285 75.8184 17.6973 76.0137 18.6348L76.3066 19.748C76.3066 19.7676 76.2578 19.9141 76.1602 20.1875C76.0625 20.4414 76.0137 20.7051 76.0137 20.9785C76.0332 21.2324 76.0234 21.4082 75.9844 21.5059C75.9648 21.584 75.9551 21.6816 75.9551 21.7988C75.9551 21.9551 76.1211 22.0332 76.4531 22.0332C76.5703 22.0332 76.7852 21.9551 77.0977 21.7988L77.2734 21.7402C77.4688 21.8574 77.6348 21.916 77.7715 21.916C77.8105 21.916 78.084 21.8184 78.5918 21.623C79.1191 21.4277 79.4512 21.3203 79.5879 21.3008C79.7246 21.2812 79.959 21.2031 80.291 21.0664H80.6426L80.877 21.1543C80.9551 21.1543 81.1113 21.0762 81.3457 20.9199C81.5996 20.7441 82.0684 20.6367 82.752 20.5977L83.1621 20.4219H83.2793C83.9238 20.4219 84.2461 20.7051 84.2461 21.2715C84.2461 21.3887 84.1484 21.5938 83.9531 21.8867C83.7773 22.1797 83.6309 22.5117 83.5137 22.8828L82.166 24.582C81.7168 25.168 81.2676 25.4609 80.8184 25.4609C80.7402 25.4609 80.4961 25.1973 80.0859 24.6699C80.0859 24.6309 80.0469 24.6113 79.9688 24.6113C79.7734 24.6113 79.5684 24.6504 79.3535 24.7285C79.1387 24.8066 78.9629 24.8457 78.8262 24.8457C78.7676 24.8457 78.25 24.9922 77.2734 25.2852L76.5703 25.4023C76.4922 25.4023 76.3066 25.4414 76.0137 25.5195L74.5195 25.8125C74.0117 26.0664 73.6113 26.5449 73.3184 27.248C73.3184 27.2871 73.2207 27.375 73.0254 27.5117L71.707 29.9141C71.2773 30.0312 70.9941 30.2852 70.8574 30.6758L70.7402 30.8516C70.5254 30.8906 70.3301 31.0176 70.1543 31.2324C69.9785 31.4277 69.8125 31.584 69.6562 31.7012L69.1289 32.4922C68.9141 32.7656 68.6992 33.0684 68.4844 33.4004C68.2695 33.7129 68.1133 34.0547 68.0156 34.4258C67.918 34.7773 67.8398 34.9824 67.7812 35.041C67.7227 35.0996 67.6934 35.207 67.6934 35.3633L67.6055 35.5977C67.3711 35.832 67.2539 36.0957 67.2539 36.3887L67.3711 36.8574C67.0977 37.7949 66.9609 38.293 66.9609 38.3516C66.9609 38.3906 66.9805 38.498 67.0195 38.6738V38.8496C67.0195 39.2793 66.8633 39.8164 66.5508 40.4609L66.6094 40.9297L66.4336 42.248C66.4336 42.4238 66.4922 42.7461 66.6094 43.2148C66.5312 43.293 66.4922 43.3516 66.4922 43.3906C66.4922 43.9375 66.7754 44.543 67.3418 45.207C67.9277 45.8516 68.2207 46.8672 68.2207 48.2539C68.2207 48.3711 68.1914 48.5469 68.1328 48.7812C68.0742 48.9961 68.0352 49.2402 68.0156 49.5137C67.9961 49.7676 67.8398 50.0215 67.5469 50.2754C67.2734 50.5293 67.0391 50.6562 66.8438 50.6562C65.8086 50.6562 65.0371 49.9043 64.5293 48.4004C64.0215 46.8965 63.7676 45.9297 63.7676 45.5L63.8262 44.3574L63.6504 43.7715L63.8262 41.1934L63.709 40.5781L64.3828 38.0586V37.1504C64.3828 37.1113 64.5195 36.9551 64.793 36.6816C64.793 36.6426 64.7539 36.623 64.6758 36.623C64.5586 36.623 64.4023 36.7402 64.207 36.9746C64.0117 37.209 63.7676 37.4336 63.4746 37.6484L63.2402 38.0586C63.2012 38.0195 63.123 37.9805 63.0059 37.9414C62.9082 37.9805 62.5859 38.4395 62.0391 39.3184C61.6289 39.377 61.3066 39.6113 61.0723 40.0215C60.8379 40.4316 60.5156 40.6367 60.1055 40.6367L59.9883 40.6953C59.9102 41.2617 59.6367 41.5449 59.168 41.5449L59.0508 41.6035C58.7578 42.2676 58.4551 42.5898 58.1426 42.5703C57.9473 43.1562 57.4688 43.5566 56.707 43.7715C56.5898 44.0059 56.4238 44.1816 56.209 44.2988C55.9746 44.416 55.8086 44.5234 55.7109 44.6211C55.6133 44.7188 55.5254 44.7676 55.4473 44.7676C55.1934 44.7676 55.0664 44.4941 55.0664 43.9473C55.0664 43.791 55.1348 43.625 55.2715 43.4492C55.3887 43.2539 55.4473 43.1172 55.4473 43.0391C55.4473 43 55.3496 42.8828 55.1543 42.6875C55.1543 42.082 55.3105 41.7012 55.623 41.5449C55.9355 41.3887 56.1699 41.1641 56.3262 40.8711C56.4238 40.6367 56.6191 40.4707 56.9121 40.373C57.2051 40.2754 57.3516 40.1484 57.3516 39.9922C57.3516 39.8555 57.6055 39.582 58.1133 39.1719C58.6211 38.7617 58.9922 38.4102 59.2266 38.1172C59.4609 37.8047 59.6562 37.6484 59.8125 37.6484L59.9297 37.5312C59.9688 37.043 60.1543 36.7988 60.4863 36.7988L60.7793 36.623L60.8379 36.3887L61.0137 36.2715H61.248L61.3945 36.1543C61.4336 35.666 61.6582 35.2852 62.0684 35.0117C62.498 34.7383 63.2695 33.9766 64.3828 32.7266C65.4961 31.457 66.1211 30.6465 66.2578 30.2949C66.3945 29.9434 66.6387 29.4746 66.9902 28.8887C67.3613 28.2832 67.5664 27.7168 67.6055 27.1895C67.5664 27.1113 67.5078 27.0332 67.4297 26.9551L66.1699 27.5703C66.1699 27.5117 65.9746 27.4238 65.584 27.3066C65.291 27.4824 65.0762 27.6582 64.9395 27.834C64.8027 28.0098 64.6953 28.0977 64.6172 28.0977L64.207 28.0391L62.918 28.1855C61.7656 28.2832 60.8965 28.5176 60.3105 28.8887L59.1094 29.2402H58.8457C58.6895 29.2402 58.4551 29.3379 58.1426 29.5332L57.4688 29.4746C56.8438 29.8066 56.3848 29.9727 56.0918 29.9727C56.0527 29.9727 55.9355 29.9531 55.7402 29.9141L52.752 30.7344C52.5176 30.8125 51.9902 31.2129 51.1699 31.9355L50.9355 31.9941C50.7402 31.9941 50.5156 31.7793 50.2617 31.3496C49.9883 30.9004 49.8516 30.5 49.8516 30.1484C49.8516 28.2148 51.5117 27.0918 54.832 26.7793L56.0332 26.3105H56.0918L56.4141 26.4277H56.5312C56.6484 26.4277 56.834 26.3594 57.0879 26.2227C57.3418 26.0664 57.9082 25.8809 58.7871 25.666L59.9883 25.3438L60.3691 25.4023C60.5645 25.4023 60.7793 25.3242 61.0137 25.168C61.2676 25.0117 61.6387 24.9043 62.127 24.8457C62.6348 24.7676 62.9863 24.6895 63.1816 24.6113L63.6504 24.4941C63.7285 24.4941 63.8848 24.4258 64.1191 24.2891C64.373 24.1523 64.6953 24.084 65.0859 24.084C65.1445 24.084 65.291 24.123 65.5254 24.2012ZM79.207 36.4473L79.6465 36.3301L79.8223 35.9492C80.7793 35.3828 81.4629 34.8457 81.873 34.3379C81.9121 34.2598 82 34.1816 82.1367 34.1035C82.2734 34.0254 82.4199 33.8887 82.5762 33.6934C83.2988 32.9707 84.1582 32.6094 85.1543 32.6094C86.3262 32.6094 86.9512 33.3223 87.0293 34.748L87.2051 35.1875C87.3613 35.4609 87.5762 36.0176 87.8496 36.8574C88.1426 37.6973 88.2891 38.2148 88.2891 38.4102C88.2891 38.9375 88.123 39.4648 87.791 39.9922C87.5176 40.1289 86.8633 40.8613 85.8281 42.1895L85.5352 42.3945C85.3789 42.7461 85.1738 43.0977 84.9199 43.4492C84.5293 43.5859 84.334 43.7324 84.334 43.8887V44.416C84.334 44.4551 84.2852 44.5332 84.1875 44.6504C84.1094 44.7676 83.9922 44.9922 83.8359 45.3242L83.6016 45.6758C83.5234 45.7539 83.4453 45.9199 83.3672 46.1738C83.2891 46.4082 83.1719 46.623 83.0156 46.8184C82.8789 47.0137 82.8105 47.1699 82.8105 47.2871C82.8105 47.5801 83.1914 47.7266 83.9531 47.7266C83.9922 47.7266 84.1387 47.668 84.3926 47.5508L84.8027 47.668C84.8418 47.668 84.9395 47.6094 85.0957 47.4922C85.252 47.3555 85.4863 47.248 85.7988 47.1699C86.1309 47.0918 86.4141 46.9746 86.6484 46.8184C86.9023 46.6621 87.1953 46.5254 87.5273 46.4082C87.8789 46.291 88.2109 46.1055 88.5234 45.8516C88.8359 45.5781 89.1387 45.3828 89.4316 45.2656C89.7441 45.1484 90.0273 44.9727 90.2812 44.7383C90.5547 44.4844 90.8574 44.25 91.1895 44.0352C91.5215 43.8203 92.0488 43.3516 92.7715 42.6289C93.2402 42.2578 93.5625 42.0527 93.7383 42.0137C93.7773 42.0137 93.9434 41.7598 94.2363 41.252C94.5488 40.7246 94.9004 40.4609 95.291 40.4609C95.7012 40.4609 95.9062 40.6562 95.9062 41.0469C95.9062 41.2617 95.8086 41.4668 95.6133 41.6621V41.8379L95.6719 42.3066C95.7109 42.3652 95.7305 42.4531 95.7305 42.5703C95.7305 42.6484 95.6523 42.7656 95.4961 42.9219C95.3594 43.0781 95.2617 43.2832 95.2031 43.5371C95.1445 43.7715 94.959 43.9277 94.6465 44.0059C94.5293 44.4355 94.373 44.6797 94.1777 44.7383C94.002 44.7969 93.748 44.9922 93.416 45.3242C93.084 45.6562 92.6152 46.0469 92.0098 46.4961C91.4043 46.9453 90.9844 47.2969 90.75 47.5508C90.5352 47.7852 90.3887 47.9023 90.3105 47.9023C90.2715 47.9023 90.1934 47.8633 90.0762 47.7852C89.959 47.707 89.8809 47.668 89.8418 47.668C89.7246 47.668 89.6465 47.8047 89.6074 48.0781L89.4902 48.3711C89.2363 48.5273 89.0898 48.6055 89.0508 48.6055L88.875 48.5469H88.7578C88.5234 48.5469 88.4062 48.6348 88.4062 48.8105L88.582 49.1035V49.1621C88.582 49.4355 88.4258 49.5723 88.1133 49.5723C87.8984 49.5723 87.2734 49.9336 86.2383 50.6562L85.3887 50.832L84.6855 51.2129C84.4512 51.0762 84.3047 51.0078 84.2461 51.0078L83.7773 51.1543L82.9277 51.2129C82.9082 51.2129 82.5469 51.0176 81.8438 50.627C81.1602 50.2363 80.75 49.8457 80.6133 49.4551C80.4766 49.0645 80.3008 48.6738 80.0859 48.2832C79.8711 47.873 79.7637 47.5898 79.7637 47.4336C79.7637 46.4961 79.8418 45.832 79.998 45.4414C80.1543 45.0312 80.252 44.7285 80.291 44.5332C80.3301 44.3379 80.4375 44.1328 80.6133 43.918C80.8086 43.6836 80.9648 43.3125 81.082 42.8047C81.6484 41.6719 82.0391 40.9785 82.2539 40.7246C82.4688 40.4707 82.6348 40.1582 82.752 39.7871L83.1328 39.2598C83.1719 39.2207 83.2305 39.0742 83.3086 38.8203C83.3867 38.5469 83.4844 38.3906 83.6016 38.3516C83.7578 38.0781 83.8359 37.9023 83.8359 37.8242C83.8359 37.2578 83.582 36.9746 83.0742 36.9746C82.9766 36.9746 82.8691 37.082 82.752 37.2969C82.6348 37.4922 82.3613 37.6875 81.9316 37.8828C81.5215 38.0781 81.2676 38.2246 81.1699 38.3223C81.0723 38.4199 80.8574 38.5469 80.5254 38.7031C80.2129 38.8398 79.9395 39.0645 79.7051 39.377L79.207 39.6113C79.0508 39.9824 78.9141 40.1875 78.7969 40.2266C78.6797 40.2656 78.3184 40.3633 77.7129 40.5195C77.6738 40.5391 77.5762 40.6562 77.4199 40.8711C77.2637 41.0859 77.0391 41.1934 76.7461 41.1934C76.5117 41.4277 76.2773 41.7012 76.043 42.0137C75.9648 42.0137 75.7598 42.0918 75.4277 42.248L74.8418 42.3945C74.6855 42.5117 74.5098 42.6973 74.3145 42.9512C74.1387 43.2051 73.7969 43.332 73.2891 43.332C72.9961 43.332 72.8496 43.0977 72.8496 42.6289C72.8496 41.6719 73.1816 40.9102 73.8457 40.3438C74.5293 39.7773 75.0273 39.4746 75.3398 39.4355C75.6523 39.3965 75.8477 39.2793 75.9258 39.084C76.0039 38.8887 76.1895 38.7324 76.4824 38.6152C76.7949 38.4785 77.1465 38.1953 77.5371 37.7656C77.9473 37.3164 78.3867 37.0137 78.8555 36.8574L79.207 36.4473ZM110.496 47.6094L109.119 48.8105C109.041 48.7324 108.963 48.6934 108.885 48.6934C108.689 48.6934 108.445 48.8691 108.152 49.2207C107.879 49.5723 107.684 49.748 107.566 49.748L107.273 49.6895C106.785 50.0605 106.434 50.2754 106.219 50.334C106.004 50.3926 105.74 50.5 105.428 50.6562C105.135 50.8125 104.861 50.9004 104.607 50.9199C104.373 50.9395 104.178 51.0273 104.021 51.1836C103.865 51.3203 103.484 51.3887 102.879 51.3887L102.41 51.3301C102.156 51.4473 101.99 51.5059 101.912 51.5059C101.756 51.5059 101.59 51.4277 101.414 51.2715C101.238 51.0957 101.043 50.998 100.828 50.9785C100.633 50.959 100.428 50.8223 100.213 50.5684C99.998 50.3145 99.793 50.1387 99.5977 50.041C99.4219 49.9434 99.2754 49.8066 99.1582 49.6309L98.748 49.2793C98.416 49.0449 98.0938 48.6152 97.7812 47.9902C97.4688 47.3652 97.3125 46.877 97.3125 46.5254V46.4082L97.3711 45.8516L97.3125 45.207C97.3906 45.1289 97.4883 44.9629 97.6055 44.709V43.7715L98.3086 41.4277C98.3477 41.3301 98.2695 41.2031 98.0742 41.0469C97.8789 41.3398 97.6836 41.5156 97.4883 41.5742C97.293 41.6328 97.1562 41.7695 97.0781 41.9844C97.0195 42.1992 96.9121 42.3066 96.7559 42.3066L96.4043 42.1895C96.3652 42.2285 96.2773 42.4336 96.1406 42.8047C96.0039 43.1562 95.7695 43.332 95.4375 43.332C95.0859 43.332 94.9102 43.1953 94.9102 42.9219L94.9688 42.3945L94.793 41.6621C94.793 41.5059 94.9492 41.2031 95.2617 40.7539C95.5742 40.2852 95.8574 40.0215 96.1113 39.9629C96.3848 39.8848 96.6094 39.6992 96.7852 39.4062C96.9805 39.0938 97.3906 38.7227 98.0156 38.293C98.3672 38.2148 98.6699 37.9609 98.9238 37.5312C99.1973 37.3164 99.5488 37.1406 99.9785 37.0039C100.428 36.8672 100.76 36.6719 100.975 36.418C101.209 36.1445 101.873 35.7344 102.967 35.1875C104.08 34.6211 104.891 34.3379 105.398 34.3379C105.555 34.3379 105.77 34.2988 106.043 34.2207C106.316 34.123 106.57 34.0449 106.805 33.9863C107.039 33.9082 107.283 33.8008 107.537 33.6641C107.791 33.5078 107.996 33.4297 108.152 33.4297L109.002 33.7227C109.627 33.8984 110.008 34.0254 110.145 34.1035C110.184 34.1426 110.379 34.2305 110.73 34.3672C111.102 34.4844 111.473 34.6504 111.844 34.8652C112.234 35.0801 112.43 35.4805 112.43 36.0664C112.098 36.5547 111.932 36.8184 111.932 36.8574C111.932 36.9355 112.156 37.0527 112.605 37.209C112.762 37.502 112.996 37.8828 113.309 38.3516L113.631 39.377L113.689 41.7793L113.631 42.0137C113.416 42.209 113.309 42.3359 113.309 42.3945L113.396 42.9805L113.162 43.8008C113.104 44.0547 113.006 44.2207 112.869 44.2988C112.732 44.377 112.645 44.4746 112.605 44.5918L112.43 44.8262C112.391 44.8848 112.303 45.0605 112.166 45.3535C112.049 45.627 111.912 45.8418 111.756 45.998C111.6 46.1543 111.502 46.3398 111.463 46.5547C111.424 46.7695 111.326 46.9258 111.17 47.0234C111.014 47.1211 110.896 47.2285 110.818 47.3457C110.76 47.4434 110.652 47.5312 110.496 47.6094ZM101.385 48.3711L101.502 49.0449L101.561 49.1035H102.029L102.176 49.1621C102.566 49.2402 102.859 49.2793 103.055 49.2793C103.66 49.2793 104.139 49.1328 104.49 48.8398C104.861 48.5273 105.154 48.3711 105.369 48.3711C105.584 48.3711 105.76 48.2246 105.896 47.9316C106.053 47.6387 106.15 47.4922 106.189 47.4922H106.6L106.717 47.4336C106.717 46.9844 106.912 46.6621 107.303 46.4668C107.713 46.2715 107.996 46.0176 108.152 45.7051C108.328 45.373 108.523 45.1289 108.738 44.9727C108.953 44.7969 109.1 44.5723 109.178 44.2988L109.412 43.9473C109.49 43.8691 109.529 43.7227 109.529 43.5078L110.086 42.4531C110.203 41.9648 110.262 41.584 110.262 41.3105C110.262 40.9004 110.047 40.5781 109.617 40.3438C109.207 40.1094 109.002 39.6504 109.002 38.9668C109.002 38.5176 109.227 38.1074 109.676 37.7363C110.145 37.3457 110.379 37.1113 110.379 37.0332C110.379 36.916 110.32 36.8574 110.203 36.8574C110.145 36.8574 109.92 36.9355 109.529 37.0918C109.393 37.3652 108.699 37.7266 107.449 38.1758C107.039 37.9805 106.814 37.8828 106.775 37.8828C106.658 37.8828 106.541 38 106.424 38.2344C106.307 38.4688 106.189 38.6348 106.072 38.7324H105.691C105.652 38.7324 105.525 38.8594 105.311 39.1133C105.096 39.3672 104.822 39.4941 104.49 39.4941L104.139 39.8457C104.158 40.1582 103.963 40.4805 103.553 40.8125L103.23 41.1934C103.035 41.4277 102.781 41.7012 102.469 42.0137L101.941 43.332C101.727 43.8398 101.619 44.2207 101.619 44.4746C101.561 44.5918 101.424 44.7188 101.209 44.8555C101.014 44.9727 100.916 45.1289 100.916 45.3242C100.916 45.3633 100.984 45.4609 101.121 45.6172C101.258 45.7734 101.326 45.8906 101.326 45.9688L101.209 46.3496L101.092 47.4336L101.385 48.3711ZM119.988 48.9863L120.311 48.5469C120.428 48.3906 120.486 48.2148 120.486 48.0195L121.189 45.9395C121.443 45.1973 121.59 44.7871 121.629 44.709L121.746 44.123L122.098 43.4492L122.215 42.6875C122.293 42.1211 122.576 41.2812 123.064 40.168L123.123 39.7285L123.357 39.084V38.9668C123.357 38.7715 123.299 38.6738 123.182 38.6738H122.947C122.596 38.6738 122.4 38.752 122.361 38.9082L122.156 39.7285C122.156 40.0215 121.98 40.168 121.629 40.168C121.59 40.168 121.482 40.1387 121.307 40.0801C121.15 40.0215 121.053 39.9922 121.014 39.9922C120.896 40.2266 120.74 40.5195 120.545 40.8711C120.35 40.9492 120.027 41.1543 119.578 41.4863L119.285 41.5449C119.07 41.8574 118.748 42.1797 118.318 42.5117L118.201 42.6875C117.928 43.1172 117.547 43.332 117.059 43.332C116.414 43.332 116.092 42.8926 116.092 42.0137C116.092 41.4668 116.355 41.0566 116.883 40.7832C117.41 40.4902 117.752 40.2363 117.908 40.0215C118.064 39.7871 118.484 39.4746 119.168 39.084L119.461 38.6738C119.617 38.459 119.754 38.3516 119.871 38.3516L120.369 38.1758C120.447 38.0977 120.623 38.0586 120.896 38.0586L120.838 37.6484C120.838 37.5312 121.082 37.4043 121.57 37.2676C121.688 37.1504 121.951 36.9355 122.361 36.623C122.791 36.3105 123.523 35.4707 124.559 34.1035C124.637 33.9082 124.783 33.7617 124.998 33.6641C125.232 33.5469 125.428 33.4102 125.584 33.2539H126.17C126.326 33.2539 126.678 33.5176 127.225 34.0449C127.771 34.5723 128.045 35.2461 128.045 36.0664L127.195 39.8457L127.254 40.1094L127.195 40.3438C127.195 40.4219 127.234 40.4609 127.312 40.4609C127.391 40.4609 127.557 40.3047 127.811 39.9922C127.928 39.6211 128.162 39.3379 128.514 39.1426C128.885 38.9473 129.158 38.7422 129.334 38.5273C129.51 38.293 129.744 38.0879 130.037 37.9121C130.35 37.7363 130.75 37.4531 131.238 37.0625C131.746 36.6523 132.205 36.4277 132.615 36.3887L132.908 36.2129L133.025 35.7734C133.377 35.5 133.758 35.2461 134.168 35.0117L134.871 34.4551C135.711 34.1816 136.336 34.0449 136.746 34.0449C136.941 34.0449 137.117 33.9668 137.273 33.8105L137.947 34.1035C137.986 34.1035 138.064 34.0449 138.182 33.9277C138.182 33.8887 138.221 33.8691 138.299 33.8691C139.1 33.8691 139.773 34.1816 140.32 34.8066C140.887 35.4316 141.17 36.1152 141.17 36.8574C141.17 36.8965 141.141 36.9844 141.082 37.1211C141.023 37.2578 140.994 37.375 140.994 37.4727L141.17 37.9414V38L140.525 39.6699C140.467 39.8652 140.35 40.4121 140.174 41.3105C139.803 41.8965 139.363 42.4531 138.855 42.9805C138.367 43.5078 138.045 43.9082 137.889 44.1816C137.967 44.2598 138.035 44.2988 138.094 44.2988C138.27 44.2988 138.523 44.123 138.855 43.7715L140.232 42.9219L140.467 43.0391C140.74 42.8438 141.023 42.6191 141.316 42.3652C141.609 42.1113 141.863 41.9746 142.078 41.9551C142.195 41.7988 142.4 41.6035 142.693 41.3691L142.986 41.0469C143.104 41.0469 143.24 40.9785 143.396 40.8418C143.553 40.7051 143.729 40.6172 143.924 40.5781C144.139 40.5391 144.354 40.3926 144.568 40.1387C144.783 39.8652 144.959 39.709 145.096 39.6699C145.252 39.6309 145.35 39.5527 145.389 39.4355C146.053 38.7715 146.57 38.4102 146.941 38.3516L147.293 38.2344C147.332 38.1953 147.371 38.1758 147.41 38.1758C147.625 38.1758 147.791 38.3809 147.908 38.791L147.527 39.377V39.6699L147.615 39.9922C147.615 40.1875 147.498 40.4414 147.264 40.7539C147.029 41.0469 146.766 41.1934 146.473 41.1934C146.141 41.3496 145.936 41.5254 145.857 41.7207C145.799 41.8965 145.516 42.1602 145.008 42.5117C144.5 42.8633 144.188 43.1758 144.07 43.4492C143.953 43.7031 143.787 43.8301 143.572 43.8301L143.045 43.6543C142.596 44.2402 142.293 44.5137 142.137 44.4746H141.961L141.844 44.5332L141.492 45.2656C141.277 45.3047 141.111 45.3633 140.994 45.4414L140.701 45.3828C139.51 46.5742 138.748 47.1699 138.416 47.1699L137.889 47.1113C137.85 47.1113 137.752 47.2285 137.596 47.4629C137.459 47.6777 137.342 47.834 137.244 47.9316C137.146 48.0293 137.02 48.1758 136.863 48.3711H136.248C136.092 48.3711 135.799 48.5371 135.369 48.8691C135.369 48.9082 135.35 48.9277 135.311 48.9277L134.871 48.752H134.812C134.617 48.752 134.363 48.9082 134.051 49.2207L133.143 49.5723C133.143 49.6113 133.123 49.6309 133.084 49.6309L132.469 49.5137C132.352 49.5137 132.176 49.6113 131.941 49.8066L131.707 49.9531C131.59 49.9531 131.385 50.0508 131.092 50.2461L130.154 50.5977C130.057 50.5586 129.969 50.5391 129.891 50.5391L129.363 50.5977L128.895 50.4805C128.797 50.4805 128.65 50.6172 128.455 50.8906C128.455 50.9297 128.416 50.9492 128.338 50.9492C128.299 50.9492 128.201 50.9297 128.045 50.8906H127.693L127.02 51.0664C126.863 51.0664 126.58 50.9102 126.17 50.5977C125.779 50.2852 125.525 50.002 125.408 49.748L125.115 49.2793C124.842 49.1621 124.656 49.0449 124.559 48.9277L124.324 49.0449C124.305 49.123 124.217 49.25 124.061 49.4258C123.924 49.6016 123.855 49.7285 123.855 49.8066C123.855 50.0605 123.758 50.4023 123.562 50.832C123.387 51.2422 123.123 51.9844 122.771 53.0586L122.391 53.5273C122.312 53.625 122.273 53.7227 122.273 53.8203C122.273 53.9961 122.117 54.2988 121.805 54.7285C121.785 55.2168 121.6 55.7051 121.248 56.1934L121.131 56.4863V56.8965C121.131 57.0137 120.936 57.4922 120.545 58.332L120.486 58.9473C120.369 58.9668 120.164 59.3477 119.871 60.0898C119.598 60.8516 119.266 61.4863 118.875 61.9941L118.611 62.9609L118.318 63.4883L118.143 64.0449C118.104 64.1426 118.045 64.2207 117.967 64.2793L117.908 64.5723L117.732 64.6895C117.771 64.9824 117.586 65.4707 117.176 66.1543C117.176 66.2324 117.078 66.3691 116.883 66.5645C116.688 66.7598 116.463 67.043 116.209 67.4141C115.955 67.8047 115.584 68.1562 115.096 68.4688L113.836 69.2598C112.898 69.2598 112.254 68.7617 111.902 67.7656C111.863 67.6484 111.678 67.3262 111.346 66.7988C110.994 66.2715 110.818 65.4902 110.818 64.4551L111.082 63.2539C111.258 62.1797 111.453 61.5059 111.668 61.2324L112.02 60.4414C112.059 60.2852 112.127 60.1289 112.225 59.9727C112.322 59.8359 112.43 59.6113 112.547 59.2988C112.645 59.0059 112.908 58.7227 113.338 58.4492C113.611 57.8242 113.895 57.2871 114.188 56.8379L114.598 56.0469C114.598 55.8125 114.803 55.5586 115.213 55.2852C115.389 54.9141 115.633 54.5332 115.945 54.1426C116.258 53.7715 116.463 53.5469 116.561 53.4688C116.658 53.3906 116.746 53.1465 116.824 52.7363C116.902 52.3066 117.068 52.043 117.322 51.9453C117.596 51.8477 117.752 51.7207 117.791 51.5645L118.084 51.0664C118.279 50.9102 118.465 50.666 118.641 50.334C118.836 50.002 119.051 49.7871 119.285 49.6895C119.539 49.2207 119.773 48.9863 119.988 48.9863ZM127.195 45.6172L128.221 45.4414C128.768 45.3242 129.07 45.2656 129.129 45.2656C129.168 45.2656 129.256 45.2949 129.393 45.3535C129.529 45.4121 129.676 45.4707 129.832 45.5293C130.008 45.5879 130.193 45.8027 130.389 46.1738C131.346 45.7246 131.922 45.4023 132.117 45.207C132.312 45.0117 132.479 44.9141 132.615 44.9141C132.654 44.9141 132.713 44.9336 132.791 44.9727C132.83 44.875 132.879 44.7578 132.938 44.6211C132.996 44.4844 133.133 44.3281 133.348 44.1523C133.582 43.957 133.934 43.5273 134.402 42.8633L135.369 41.7793L136.395 40.2852C136.648 39.8945 136.863 39.4355 137.039 38.9082L137.215 38.5273C137.293 38.293 137.332 38.1562 137.332 38.1172C137.332 37.9805 137.195 37.6582 136.922 37.1504L136.189 37.4727V37.4141C135.955 37.2383 135.76 37.1504 135.604 37.1504C135.486 37.1504 135.379 37.2285 135.281 37.3848C135.184 37.5215 135.037 37.6094 134.842 37.6484C134.666 37.6875 134.51 37.7754 134.373 37.9121C134.236 38.0488 134.051 38.127 133.816 38.1465C133.602 38.166 133.357 38.3125 133.084 38.5859L132.732 38.5273L132.527 38.6738L132.176 38.5859C131.766 39.0547 131.473 39.3477 131.297 39.4648C131.141 39.5625 130.916 39.8164 130.623 40.2266H130.213C130.057 40.2266 129.91 40.4414 129.773 40.8711C129.578 40.9883 129.383 41.1738 129.188 41.4277L128.455 41.7207C128.299 41.9746 128.123 42.1699 127.928 42.3066L126.785 43.7715C126.707 43.8496 126.619 43.8984 126.521 43.918C126.424 43.9375 126.326 43.9668 126.229 44.0059L126.375 44.5918H126.287C125.818 44.8457 125.525 45.2949 125.408 45.9395L125.232 46.6426C125.232 46.7598 125.271 46.8184 125.35 46.8184C125.428 46.8184 125.535 46.75 125.672 46.6133C125.809 46.4766 126.053 46.2812 126.404 46.0273C126.756 45.7734 127.02 45.6367 127.195 45.6172ZM113.104 65.1875C113.201 65.1289 113.699 64.3672 114.598 62.9023L114.891 62.3457C115.066 62.0332 115.232 61.7793 115.389 61.584L115.447 61.3496C115.545 61.252 115.643 61.1055 115.74 60.9102L117.352 56.6621C117.586 56.0371 117.732 55.5879 117.791 55.3145C117.869 55.0605 118.143 54.25 118.611 52.8828C118.494 52.9219 118.377 53.0586 118.26 53.293C118.143 53.5469 118.045 53.6738 117.967 53.6738L117.527 53.7324C117.488 53.7324 117.332 54.084 117.059 54.7871L116.941 54.9336C116.648 54.9727 116.453 55.1289 116.355 55.4023L115.857 56.4277V56.8379C115.857 57.3066 115.516 57.7461 114.832 58.1562C114.617 58.7227 114.48 59.0059 114.422 59.0059H114.129L114.246 59.5332C114.246 59.9824 114.119 60.3633 113.865 60.6758C113.592 61.0078 113.455 61.1934 113.455 61.2324L113.514 61.8184L113.455 62.3457C113.221 62.9121 113.104 63.5957 113.104 64.3965V65.1875ZM165.867 43.5664V43.8887L165.926 44.123V44.2402C165.926 44.2793 165.887 44.5039 165.809 44.9141C165.516 45.2266 165.35 45.666 165.311 46.2324L164.959 46.7598C164.959 47.0332 164.861 47.248 164.666 47.4043C164.49 47.5605 164.334 47.873 164.197 48.3418C164.061 48.8105 163.895 49.3086 163.699 49.8359L163.025 51.5059C163.025 51.584 163.064 51.623 163.143 51.623C163.182 51.623 163.24 51.6035 163.318 51.5645C163.416 51.5254 163.504 51.5059 163.582 51.5059C163.66 51.5059 163.738 51.5254 163.816 51.5645C163.895 51.6035 163.953 51.623 163.992 51.623C164.031 51.623 164.168 51.5547 164.402 51.418C164.656 51.2812 164.939 51.1934 165.252 51.1543L166.336 50.8906C166.57 50.8125 167.049 50.7734 167.771 50.7734L168.68 50.7148C169.402 50.7148 170.125 50.9004 170.848 51.2715C171.59 51.6426 172.049 52.0332 172.225 52.4434C172.42 52.8535 172.518 53.5176 172.518 54.4355C172.518 55.1582 172.273 55.5195 171.785 55.5195C171.492 55.5195 171.111 55.334 170.643 54.9629C170.193 54.5918 169.881 54.123 169.705 53.5566C169.529 52.9902 169.246 52.707 168.855 52.707L168.123 52.4727L167.713 52.5898H167.596C167.518 52.5898 167.342 52.5312 167.068 52.4141H166.98L166.102 52.6484H164.9L164.344 52.9414C164.07 53.0195 163.768 53.0781 163.436 53.1172C163.123 53.1562 162.84 53.2344 162.586 53.3516C162.332 53.4688 162.205 53.5762 162.205 53.6738C162.205 54.2793 161.941 54.7969 161.414 55.2266C161.219 55.5391 161.111 55.7832 161.092 55.959C161.072 56.1543 160.955 56.3594 160.74 56.5742C160.545 56.8086 160.33 57.1602 160.096 57.6289L159.861 58.0391C159.783 58.1562 159.744 58.2539 159.744 58.332C159.744 58.3711 159.764 58.4492 159.803 58.5664V58.8301C159.803 59.377 159.48 59.8945 158.836 60.3828V60.6758C158.836 60.832 158.68 61.0566 158.367 61.3496L158.484 61.9355C158.484 62.0137 158.377 62.1699 158.162 62.4043C157.947 62.6582 157.762 62.9316 157.605 63.2246C157.469 63.5371 157.195 63.8105 156.785 64.0449V64.2207L156.961 64.5723C157.02 64.5723 157.049 64.6113 157.049 64.6895C157.049 64.8262 156.902 65.0312 156.609 65.3047C156.531 65.6172 156.395 65.9199 156.199 66.2129L154.998 67.8242C154.803 68.0977 154.705 68.3125 154.705 68.4688L154.5 69.0254C154.285 69.2012 154.129 69.377 154.031 69.5527C153.953 69.748 153.699 70.1191 153.27 70.666C152.84 71.2129 152.557 71.4863 152.42 71.4863C152.537 71.7207 152.596 71.8574 152.596 71.8965C152.596 72.1309 152.439 72.4141 152.127 72.7461C151.619 72.7461 151.365 72.8535 151.365 73.0684L151.512 73.6543C151.512 73.7324 151.404 73.8496 151.189 74.0059C150.975 74.1621 150.799 74.2402 150.662 74.2402H150.252L150.369 74.7676C150.291 74.9824 150.174 75.1289 150.018 75.207C149.861 75.2852 149.598 75.5098 149.227 75.8809C148.875 76.2715 148.621 76.5059 148.465 76.584L148.084 76.8184L146.941 76.9355C146.629 76.8379 146.023 76.5156 145.125 75.9688C144.246 75.4219 143.748 74.9043 143.631 74.416C143.494 73.9473 143.426 73.2734 143.426 72.3945C143.426 72.2969 143.523 72.1309 143.719 71.8965L143.777 71.6621V71.1055C143.777 71.0664 143.875 70.7148 144.07 70.0508C144.266 69.4062 144.432 69.0449 144.568 68.9668C144.705 68.9082 144.92 68.5273 145.213 67.8242C145.506 67.1211 145.73 66.6621 145.887 66.4473L148.582 62.4922C148.582 62.2383 148.621 62.0723 148.699 61.9941H148.875C149.031 61.9941 149.139 61.9355 149.197 61.8184C149.256 61.7207 149.344 61.6035 149.461 61.4668C149.461 61.0957 149.627 60.793 149.959 60.5586C150.311 60.3242 150.555 60.0605 150.691 59.7676C150.848 59.4941 151.023 59.2402 151.219 59.0059L151.277 58.8301C151.355 58.752 151.521 58.6543 151.775 58.5371C152.049 58.4395 152.205 58.293 152.244 58.0977L153.24 57.1309C153.338 57.0527 153.494 56.9551 153.709 56.8379C153.924 56.7207 154.148 56.5059 154.383 56.1934L154.588 56.1055H154.764L154.881 56.0469C155.115 55.5391 155.35 55.2656 155.584 55.2266C155.838 55.1875 156.004 55.1289 156.082 55.0508C156.062 54.4453 156.404 54.1426 157.107 54.1426C157.264 54.1426 157.381 54.1035 157.459 54.0254L158.162 53.4688C158.26 53.3906 158.445 53.0098 158.719 52.3262V52.2676L159.246 52.4141L159.305 52.2676L159.188 51.623C159.246 51.5449 159.363 51.2812 159.539 50.832C159.715 50.3633 159.881 50.0898 160.037 50.0117C160.193 49.9336 160.271 49.8457 160.271 49.748V49.3965L160.213 49.0449L160.33 48.8105V48.4297L160.389 48.3125C160.486 48.2148 160.604 47.8535 160.74 47.2285C160.818 47.1504 160.926 47.0723 161.062 46.9941L162.381 43.2734C162.42 43.1758 162.479 42.9219 162.557 42.5117L162.791 42.1895C163.025 41.5645 163.143 41.1641 163.143 40.9883C163.143 40.9102 163.104 40.8711 163.025 40.8711C162.947 40.8711 162.771 40.9883 162.498 41.2227C162.225 41.4375 162.02 41.5449 161.883 41.5449L161.414 41.4277H161.297C161.18 41.4277 161.014 41.5254 160.799 41.7207C160.604 41.916 160.486 42.0137 160.447 42.0137L160.096 42.0723C159.9 42.4043 159.725 42.5898 159.568 42.6289L158.836 43.0977H158.777L158.367 42.8047C158.367 42.7656 158.318 42.7461 158.221 42.7461C158.143 42.7461 158.025 42.9805 157.869 43.4492L156.961 43.8887C156.766 43.8496 156.648 43.8301 156.609 43.8301C156.414 43.8301 156.229 44.0156 156.053 44.3867C155.877 44.7383 155.643 44.9336 155.35 44.9727C155.193 45.1484 154.832 45.2852 154.266 45.3828L152.537 46.584C152.342 46.6621 152.205 46.7598 152.127 46.877C151.717 46.916 151.336 47.1406 150.984 47.5508L150.193 47.4922C149.998 47.4922 149.803 47.6191 149.607 47.873C149.432 48.127 149.246 48.2539 149.051 48.2539H148.875L148.523 48.1953L147.557 48.4297C147.283 48.4297 146.863 48.2246 146.297 47.8145C145.73 47.3848 145.447 47.0137 145.447 46.7012L145.271 45.3828C145.271 45.3438 145.35 45.207 145.506 44.9727C145.662 44.7383 145.74 44.5723 145.74 44.4746C145.74 44.4355 145.721 44.3574 145.682 44.2402V44.0059C145.682 43.3223 145.926 42.502 146.414 41.5449V41.4277C146.414 41.3496 146.355 41.3105 146.238 41.3105C145.984 41.3105 145.77 41.5254 145.594 41.9551C145.418 42.3652 145.213 42.6582 144.979 42.834C144.744 43.0098 144.568 43.1562 144.451 43.2734C144.354 43.3906 144.266 43.4492 144.188 43.4492C144.07 43.3711 143.934 43.3125 143.777 43.2734C143.738 43.2344 143.67 43.1172 143.572 42.9219C143.475 42.7266 143.328 42.5703 143.133 42.4531C142.918 42.3164 142.811 42.0918 142.811 41.7793C142.811 41.5645 143.094 41.2812 143.66 40.9297L144.012 40.5781C144.91 39.6797 145.516 39.2012 145.828 39.1426L146.004 38.7324C146.277 38.5176 146.609 38.2246 147 37.8535C147.41 37.4629 147.771 37.1895 148.084 37.0332L149.666 35.6562C150.135 35.2266 150.779 35.0117 151.6 35.0117C152.225 35.0117 152.537 35.4121 152.537 36.2129C152.537 37.0137 152.391 37.6387 152.098 38.0879C151.824 38.5176 151.648 38.918 151.57 39.2891C151.512 39.6406 151.258 40.1191 150.809 40.7246C150.359 41.3105 150.086 41.75 149.988 42.043C149.891 42.3164 149.686 42.707 149.373 43.2148C149.08 43.7031 148.934 44.1426 148.934 44.5332C148.934 44.7285 149.051 44.8262 149.285 44.8262C149.617 44.8262 150.037 44.6504 150.545 44.2988L150.809 44.1816C151.004 44.1035 151.199 44.0059 151.395 43.8887L152.127 43.5664C152.264 43.2734 152.479 43.0781 152.771 42.9805L153.328 42.6875C153.602 42.5703 153.934 42.4238 154.324 42.248C154.734 42.0527 154.998 41.8672 155.115 41.6914C155.232 41.5156 155.379 41.3789 155.555 41.2812C155.75 41.1641 155.965 40.9883 156.199 40.7539C156.707 40.7539 157.41 40.3145 158.309 39.4355C159.207 38.9082 160.047 38.3906 160.828 37.8828C161.609 37.3555 162.127 36.9746 162.381 36.7402C162.498 36.6621 162.703 36.5547 162.996 36.418C163.309 36.2812 163.65 36.0664 164.021 35.7734C164.412 35.4609 164.9 35.3047 165.486 35.3047C165.994 35.3047 166.482 35.5 166.951 35.8906C167.42 36.2617 167.654 36.6328 167.654 37.0039L167.596 38.4102C167.596 39.3086 167.352 40.0703 166.863 40.6953C166.746 41.4766 166.609 42.0137 166.453 42.3066L166.512 42.9805C166.512 43.0977 166.297 43.293 165.867 43.5664ZM151.98 66.0078L152.127 65.5977C152.166 65.4609 152.303 65.3242 152.537 65.1875C152.732 64.3477 152.996 63.8008 153.328 63.5469C153.328 63.1172 153.348 62.873 153.387 62.8145L153.797 62.4336L154.939 60.5C155.057 60.2266 155.184 59.9629 155.32 59.709C155.457 59.4746 155.564 59.2402 155.643 59.0059C155.643 58.7324 155.965 58.1953 156.609 57.3945V57.1895C156.609 56.916 156.551 56.7793 156.434 56.7793C156.316 56.916 156.121 57.0527 155.848 57.1895L153.973 58.7715C153.875 58.8496 153.611 59.1621 153.182 59.709L152.625 60.2949C152.312 60.627 152.068 60.832 151.893 60.9102C151.736 61.0078 151.531 61.291 151.277 61.7598C151.043 62.248 150.838 62.4922 150.662 62.4922H150.545C150.525 62.4922 150.428 62.4434 150.252 62.3457C150.135 62.4043 150.076 62.4922 150.076 62.6094L150.252 63.3125C150.252 63.3906 150.174 63.5078 150.018 63.6641C149.861 63.8398 149.725 64.0254 149.607 64.2207C149.51 64.416 149.402 64.5332 149.285 64.5723C149.168 64.6113 148.953 64.9727 148.641 65.6562L148.084 65.9492C148.025 67.1016 147.664 68.0293 147 68.7324C146.844 69.0449 146.717 69.3477 146.619 69.6406C146.521 69.9531 146.434 70.1484 146.355 70.2266C146.238 70.9492 146.033 71.3691 145.74 71.4863C145.662 71.5254 145.623 71.584 145.623 71.6621C145.623 71.7793 145.711 71.8965 145.887 72.0137L146.004 72.1309C145.75 72.8926 145.623 73.459 145.623 73.8301C145.623 73.9082 145.662 73.9473 145.74 73.9473L146.619 73.5078C147.244 73.2148 147.664 72.8438 147.879 72.3945L148.348 71.4863C148.426 71.3691 148.562 71.291 148.758 71.252C148.875 70.8418 149.061 70.5781 149.314 70.4609C149.588 70.3438 149.725 70.1875 149.725 69.9922C149.725 69.7969 150.086 69.123 150.809 67.9707C151.551 66.8184 151.941 66.1641 151.98 66.0078Z" fill="black"/>
</g>
<defs>
<filter id="filter0_d" x="0.666016" y="11.3066" width="57.0801" height="58.4863" filterUnits="userSpaceOnUse" color-interpolation-filters="sRGB">
<feFlood flood-opacity="0" result="BackgroundImageFix"/>
<feColorMatrix in="SourceAlpha" type="matrix" values="0 0 0 0 0 0 0 0 0 0 0 0 0 0 0 0 0 0 127 0" result="hardAlpha"/>
<feOffset dy="4"/>
<feGaussianBlur stdDeviation="2.5"/>
<feComposite in2="hardAlpha" operator="out"/>
<feColorMatrix type="matrix" values="0 0 0 0 0.901961 0 0 0 0 0.6 0 0 0 0 0 0 0 0 0.3 0"/>
<feBlend mode="normal" in2="BackgroundImageFix" result="effect1_dropShadow"/>
<feBlend mode="normal" in="SourceGraphic" in2="effect1_dropShadow" result="shape"/>
</filter>
<filter id="filter1_d" x="44.8516" y="16.2285" width="132.666" height="69.707" filterUnits="userSpaceOnUse" color-interpolation-filters="sRGB">
<feFlood flood-opacity="0" result="BackgroundImageFix"/>
<feColorMatrix in="SourceAlpha" type="matrix" values="0 0 0 0 0 0 0 0 0 0 0 0 0 0 0 0 0 0 127 0" result="hardAlpha"/>
<feOffset dy="4"/>
<feGaussianBlur stdDeviation="2.5"/>
<feComposite in2="hardAlpha" operator="out"/>
<feColorMatrix type="matrix" values="0 0 0 0 0 0 0 0 0 0 0 0 0 0 0 0 0 0 0.25 0"/>
<feBlend mode="normal" in2="BackgroundImageFix" result="effect1_dropShadow"/>
<feBlend mode="normal" in="SourceGraphic" in2="effect1_dropShadow" result="shape"/>
</filter>
</defs>
</svg>
