<svg width="18" height="18" viewBox="0 0 18 18" fill="none" xmlns="http://www.w3.org/2000/svg">
<path d="M14.1592 10.125H5.625C5.32663 10.125 5.04049 10.0065 4.82951 9.79549C4.61853 9.58451 4.5 9.29836 4.5 8.99999C4.5 8.70162 4.61853 8.41548 4.82951 8.2045C5.04049 7.99352 5.32663 7.87499 5.625 7.87499H14.1592L12.7046 6.42041C12.4946 6.20925 12.3769 5.92344 12.3773 5.62564C12.3777 5.32785 12.4962 5.04237 12.7068 4.83179C12.9174 4.62122 13.2029 4.50273 13.5007 4.50232C13.7984 4.50191 14.0843 4.61959 14.2954 4.82958L17.6704 8.20458C17.7749 8.30902 17.8578 8.43302 17.9143 8.5695C17.9709 8.70598 18 8.85226 18 8.99999C18 9.14773 17.9709 9.29401 17.9143 9.43049C17.8578 9.56697 17.7749 9.69097 17.6704 9.79541L14.2954 13.1704C14.1911 13.2753 14.067 13.3586 13.9304 13.4156C13.7938 13.4725 13.6473 13.5019 13.4994 13.5021C13.3514 13.5023 13.2048 13.4733 13.068 13.4168C12.9313 13.3602 12.807 13.2773 12.7024 13.1726C12.5977 13.068 12.5148 12.9437 12.4582 12.807C12.4017 12.6702 12.3727 12.5236 12.3729 12.3756C12.3731 12.2277 12.4025 12.0812 12.4594 11.9446C12.5163 11.808 12.5997 11.6839 12.7046 11.5796L14.1592 10.125Z" fill="black"/>
<path d="M1.125 1.80847e-07H10.125C10.2728 -8.36214e-05 10.4191 0.0289582 10.5556 0.085465C10.6921 0.141972 10.8162 0.224836 10.9207 0.329318C11.0252 0.433801 11.108 0.557853 11.1645 0.694382C11.221 0.830911 11.2501 0.977239 11.25 1.125V3.375C11.25 3.67337 11.1315 3.95952 10.9205 4.1705C10.7095 4.38147 10.4234 4.5 10.125 4.5C9.82663 4.5 9.54048 4.38147 9.3295 4.1705C9.11853 3.95952 9 3.67337 9 3.375V2.25H2.25V15.75H9V14.625C9 14.3266 9.11853 14.0405 9.3295 13.8295C9.54048 13.6185 9.82663 13.5 10.125 13.5C10.4234 13.5 10.7095 13.6185 10.9205 13.8295C11.1315 14.0405 11.25 14.3266 11.25 14.625V16.875C11.2501 17.0228 11.221 17.1691 11.1645 17.3056C11.108 17.4421 11.0252 17.5662 10.9207 17.6707C10.8162 17.7752 10.6921 17.858 10.5556 17.9145C10.4191 17.971 10.2728 18.0001 10.125 18H1.125C0.977239 18.0001 0.83091 17.971 0.694381 17.9145C0.557852 17.858 0.4338 17.7752 0.329317 17.6707C0.224835 17.5662 0.14197 17.4421 0.0854636 17.3056C0.0289567 17.1691 -8.46964e-05 17.0228 -8.9407e-07 16.875V1.125C-8.46964e-05 0.977239 0.0289567 0.830911 0.0854636 0.694382C0.14197 0.557853 0.224835 0.433801 0.329317 0.329318C0.4338 0.224836 0.557852 0.141972 0.694381 0.085465C0.83091 0.0289582 0.977239 -8.36214e-05 1.125 1.80847e-07V1.80847e-07Z" fill="black"/>
</svg>
