<svg width="80" height="80" viewBox="0 0 80 80" fill="none" xmlns="http://www.w3.org/2000/svg">
<path fill-rule="evenodd" clip-rule="evenodd" d="M5.97461 75H74.0371V25.65L5.97461 25.6625V75Z" fill="#F8E157"/>
<path d="M19.6995 14.4L8.83698 20.65C7.95901 21.1554 7.23051 21.8843 6.72554 22.7625C6.22056 23.6407 5.95712 24.637 5.96198 25.65C5.96293 26.6745 6.20978 27.6837 6.68179 28.5929C7.1538 29.5021 7.83718 30.2848 8.67448 30.875L37.912 51.45C38.5216 51.8839 39.2512 52.117 39.9995 52.117C40.7477 52.117 41.4774 51.8839 42.087 51.45L71.3245 30.8875C72.1618 30.2973 72.8452 29.5146 73.3172 28.6054C73.7892 27.6962 74.036 26.687 74.037 25.6625C74.0418 24.6495 73.7784 23.6532 73.2734 22.775C72.7684 21.8968 72.0399 21.1679 71.162 20.6625L60.3495 14.4125L19.6995 14.4Z" fill="#FCBF4A"/>
<path d="M17.6238 5C17.1398 5 16.6756 5.19228 16.3334 5.53453C15.9911 5.87678 15.7988 6.34098 15.7988 6.825V35.9L37.9113 51.45C38.5209 51.8839 39.2506 52.117 39.9988 52.117C40.7471 52.117 41.4767 51.8839 42.0863 51.45L64.1863 35.9V6.825C64.1863 6.34314 63.9958 5.88083 63.6562 5.53893C63.3167 5.19703 62.8557 5.0033 62.3738 5H17.6238Z" fill="#E0E5EB"/>
<path d="M59.8613 5V32.625C59.8657 33.0628 59.7673 33.4956 59.5741 33.8885C59.3809 34.2815 59.0983 34.6236 58.7488 34.8875L42.1113 46.5625C41.5304 46.9742 40.8359 47.1953 40.1238 47.1953C39.4118 47.1953 38.7173 46.9742 38.1363 46.5625L15.7988 30.8375V35.8375L37.9113 51.45C38.5209 51.8839 39.2506 52.117 39.9988 52.117C40.7471 52.117 41.4767 51.8839 42.0863 51.45L64.1863 35.9V6.825C64.175 6.35462 63.9824 5.9068 63.6488 5.575C63.4861 5.4076 63.2919 5.27395 63.0774 5.18172C62.8629 5.08948 62.6323 5.04048 62.3988 5.0375L59.8613 5Z" fill="#BEC7D6"/>
<path d="M30.3745 23.1876C30.1379 22.7791 30.0486 22.3019 30.1214 21.8356C30.1942 21.3692 30.4247 20.9419 30.7745 20.6251L39.9995 12.2126C40.2271 12.0024 40.4991 11.8462 40.7953 11.7555C41.0916 11.6649 41.4044 11.6422 41.7106 11.689C42.0169 11.7358 42.3086 11.851 42.5642 12.0261C42.8198 12.2011 43.0327 12.4315 43.187 12.7001C44.437 14.8251 46.2495 17.9876 47.462 20.1001C47.6163 20.3691 47.7087 20.6691 47.7324 20.9783C47.7562 21.2875 47.7108 21.5981 47.5995 21.8876C47.4984 22.1764 47.3336 22.4388 47.1172 22.6552C46.9008 22.8716 46.6384 23.0365 46.3495 23.1376L34.462 26.8876C34.0115 27.031 33.5255 27.0162 33.0845 26.8457C32.6435 26.6752 32.274 26.3592 32.037 25.9501L30.3745 23.1876Z" fill="#4F9FF6"/>
<path d="M35.9375 26.3875C35.9375 26.3875 38.4375 28.7 40.1375 30.1375C40.3048 30.2937 40.5014 30.415 40.716 30.4944C40.9306 30.5738 41.1589 30.6097 41.3875 30.6C41.6248 30.592 41.858 30.5358 42.0729 30.4348C42.2878 30.3338 42.4799 30.1901 42.6375 30.0125L43.325 29.25C43.6326 28.8985 43.7915 28.4412 43.7682 27.9747C43.7449 27.5082 43.5411 27.0691 43.2 26.75L41.0125 24.775L35.9375 26.3875Z" fill="#3F76D3"/>
<path d="M5.96191 75L38.5744 52.6875C39.0733 52.3401 39.6665 52.1539 40.2744 52.1539C40.8823 52.1539 41.4756 52.3401 41.9744 52.6875L74.0369 75H5.96191Z" fill="#FCBF4A"/>
<path fill-rule="evenodd" clip-rule="evenodd" d="M34.0869 39.15H45.9119C46.2434 39.15 46.5614 39.0183 46.7958 38.7839C47.0302 38.5495 47.1619 38.2315 47.1619 37.9C47.1619 37.5685 47.0302 37.2506 46.7958 37.0161C46.5614 36.7817 46.2434 36.65 45.9119 36.65H34.0869C33.7554 36.65 33.4375 36.7817 33.203 37.0161C32.9686 37.2506 32.8369 37.5685 32.8369 37.9C32.8369 38.2315 32.9686 38.5495 33.203 38.7839C33.4375 39.0183 33.7554 39.15 34.0869 39.15Z" fill="#5E697B"/>
</svg>
